<svg xmlns="http://www.w3.org/2000/svg" width="58" height="57" viewBox="0 0 58 57" fill="none">
  <g clip-path="url(#clip0_715_2040)">
    <path d="M48.0697 10.62L3.42971 17.75L2.69971 13.22L47.3297 6.08997L48.0697 10.62Z" fill="#165C7D"/>
    <path d="M51.5398 22.46L15.8998 18.36C15.6598 18.36 15.4198 18.36 15.1798 18.36C13.6251 18.3644 12.1261 18.9389 10.9668 19.9747C9.80751 21.0105 9.06847 22.4357 8.88975 23.98L6.44975 45.47C6.26661 47.1341 6.74804 48.8032 7.7893 50.1141C8.83055 51.4251 10.3474 52.2718 12.0098 52.47L47.6498 56.57C47.8895 56.5849 48.13 56.5849 48.3698 56.57C49.9116 56.5598 51.397 55.989 52.5489 54.9641C53.7008 53.9392 54.4404 52.5302 54.6298 51L57.0998 29.48C57.2885 27.8127 56.8097 26.1384 55.7679 24.823C54.7261 23.5076 53.206 22.6581 51.5398 22.46ZM48.3698 53.57H47.9698L12.3298 49.47C11.9061 49.4255 11.4957 49.2964 11.123 49.0902C10.7502 48.8841 10.4226 48.6051 10.1598 48.27C9.8828 47.9303 9.67717 47.5383 9.55518 47.1173C9.43319 46.6964 9.39733 46.2551 9.44975 45.82L11.9398 24.3C12.0303 23.5025 12.41 22.766 13.0071 22.2297C13.6042 21.6934 14.3772 21.3947 15.1798 21.39H15.5498L51.1898 25.49C52.0501 25.5927 52.8346 26.0326 53.3708 26.7132C53.9071 27.3938 54.1512 28.2595 54.0498 29.12L51.5698 50.66C51.4885 51.454 51.117 52.1901 50.5264 52.7271C49.9359 53.2641 49.1679 53.5643 48.3698 53.57Z" fill="#165C7D"/>
    <path d="M55.3497 35.57L10.3997 30.83L10.8897 26.27L55.8397 31.01L55.3497 35.57Z" fill="#165C7D"/>
    <path d="M48.4497 5.39994C48.2179 3.90722 47.459 2.54691 46.3106 1.56547C45.1623 0.584033 43.7003 0.0463878 42.1897 0.0499443C41.8549 0.0517325 41.5206 0.0784732 41.1897 0.129944L5.75972 5.84994C5.52313 5.88789 5.2893 5.94134 5.05972 6.00994C3.56322 6.43186 2.27435 7.3898 1.43888 8.7011C0.603414 10.0124 0.279789 11.5853 0.529719 13.1199L3.97972 34.5099C4.18037 35.6682 4.69761 36.7483 5.47419 37.6308C6.25076 38.5133 7.25637 39.1637 8.37972 39.5099V36.1899C8.01565 35.937 7.70718 35.6122 7.47329 35.2356C7.23941 34.8589 7.08505 34.4384 7.01972 33.9999L3.55972 12.6299C3.44364 11.8454 3.61571 11.0455 4.04409 10.3781C4.47247 9.71068 5.12814 9.22109 5.88972 8.99994L6.24972 8.91994L41.6697 3.16994C41.8428 3.15547 42.0167 3.15547 42.1897 3.16994C42.9663 3.16727 43.7189 3.43855 44.3152 3.93607C44.9115 4.43358 45.3132 5.12545 45.4497 5.88994L48.5497 25.1399H51.6597L48.4497 5.39994Z" fill="#165C7D"/>
  </g>
  <defs>
    <clipPath id="clip0_715_2040">
      <rect width="56.69" height="56.69" fill="white" transform="translate(0.449707)"/>
    </clipPath>
  </defs>
</svg>
