<svg width="58" height="57" viewBox="0 0 58 57" fill="none" xmlns="http://www.w3.org/2000/svg">
<g id="Icones_Icone_Categorias">
<path id="Vector" d="M6.94961 55.79C5.56518 55.79 4.23746 55.2401 3.25852 54.2611C2.27958 53.2822 1.72961 51.9545 1.72961 50.57V6.12002C1.72961 4.73559 2.27958 3.40787 3.25852 2.42893C4.23746 1.44999 5.56518 0.900024 6.94961 0.900024H51.3996C52.784 0.900024 54.1118 1.44999 55.0907 2.42893C56.0696 3.40787 56.6196 4.73559 56.6196 6.12002V50.57C56.6196 51.9545 56.0696 53.2822 55.0907 54.2611C54.1118 55.2401 52.784 55.79 51.3996 55.79H6.94961ZM6.94961 3.94002C6.37225 3.94265 5.81929 4.17318 5.41103 4.58144C5.00277 4.9897 4.77224 5.54266 4.76961 6.12002V50.57C4.76961 51.1491 4.99897 51.7046 5.40751 52.1151C5.81606 52.5255 6.37052 52.7574 6.94961 52.76H51.3996C51.9804 52.76 52.5375 52.5293 52.9482 52.1186C53.3589 51.7079 53.5896 51.1508 53.5896 50.57V6.12002C53.587 5.54093 53.3551 4.98647 52.9447 4.57792C52.5342 4.16938 51.9787 3.94002 51.3996 3.94002H6.94961ZM26.7096 47.15C25.5891 47.153 24.4976 46.7946 23.5969 46.1281C22.6962 45.4615 22.0344 44.5224 21.7096 43.45H10.6596C10.4421 43.4857 10.2195 43.4736 10.0071 43.4146C9.79474 43.3556 9.59774 43.2512 9.42977 43.1085C9.26179 42.9658 9.12686 42.7883 9.03432 42.5882C8.94178 42.3882 8.89385 42.1704 8.89385 41.95C8.89385 41.7296 8.94178 41.5119 9.03432 41.3118C9.12686 41.1118 9.26179 40.9343 9.42977 40.7916C9.59774 40.6489 9.79474 40.5444 10.0071 40.4855C10.2195 40.4265 10.4421 40.4144 10.6596 40.45H21.7296C22.04 39.3634 22.6959 38.4075 23.5981 37.727C24.5003 37.0464 25.5996 36.6783 26.7296 36.6783C27.8597 36.6783 28.959 37.0464 29.8611 37.727C30.7633 38.4075 31.4192 39.3634 31.7296 40.45H47.7296C48.0854 40.5083 48.4089 40.6912 48.6423 40.9659C48.8757 41.2407 49.0038 41.5895 49.0038 41.95C49.0038 42.3106 48.8757 42.6593 48.6423 42.9341C48.4089 43.2089 48.0854 43.3917 47.7296 43.45H31.7296C31.4025 44.5249 30.7373 45.4655 29.8329 46.1321C28.9285 46.7987 27.8331 47.1557 26.7096 47.15ZM26.7096 39.74C26.2761 39.738 25.8517 39.8648 25.4902 40.1042C25.1287 40.3437 24.8465 40.685 24.6792 41.085C24.5119 41.485 24.4671 41.9256 24.5505 42.3511C24.6339 42.7766 24.8416 43.1677 25.1475 43.475C25.4534 43.7823 25.8436 43.9919 26.2687 44.0772C26.6938 44.1625 27.1346 44.1197 27.5354 43.9543C27.9361 43.7888 28.2787 43.5081 28.5198 43.1478C28.7609 42.7874 28.8896 42.3636 28.8896 41.93C28.8896 41.3509 28.6603 40.7954 28.2517 40.385C27.8432 39.9746 27.2887 39.7427 26.7096 39.74ZM39.0596 33.57C37.9387 33.5746 36.8464 33.2168 35.9454 32.55C35.0444 31.8833 34.3829 30.9433 34.0596 29.87H10.6596C10.3038 29.8117 9.98035 29.6289 9.74694 29.3541C9.51353 29.0793 9.38538 28.7306 9.38538 28.37C9.38538 28.0095 9.51353 27.6607 9.74694 27.3859C9.98035 27.1112 10.3038 26.9283 10.6596 26.87H34.0796C34.3836 25.7776 35.0371 24.8148 35.94 24.1288C36.8429 23.4428 37.9457 23.0715 39.0796 23.0715C40.2136 23.0715 41.3163 23.4428 42.2192 24.1288C43.1222 24.8148 43.7756 25.7776 44.0796 26.87H47.7496C48.1054 26.9283 48.4289 27.1112 48.6623 27.3859C48.8957 27.6607 49.0238 28.0095 49.0238 28.37C49.0238 28.7306 48.8957 29.0793 48.6623 29.3541C48.4289 29.6289 48.1054 29.8117 47.7496 29.87H44.0296C43.7078 30.9383 43.0508 31.8748 42.1559 32.5411C41.2609 33.2074 40.1754 33.5681 39.0596 33.57ZM39.0596 26.16C38.626 26.158 38.2017 26.2848 37.8402 26.5242C37.4787 26.7637 37.1965 27.105 37.0292 27.505C36.8619 27.905 36.8171 28.3456 36.9005 28.7711C36.9839 29.1966 37.1916 29.5877 37.4975 29.895C37.8034 30.2023 38.1936 30.4119 38.6187 30.4972C39.0438 30.5825 39.4846 30.5397 39.8854 30.3743C40.2861 30.2088 40.6287 29.9281 40.8698 29.5678C41.1109 29.2074 41.2396 28.7836 41.2396 28.35C41.2396 27.7709 41.0103 27.2154 40.6017 26.805C40.1932 26.3946 39.6387 26.1627 39.0596 26.16ZM21.7696 20C20.6479 20.0023 19.5553 19.6425 18.6545 18.974C17.7536 18.3056 17.0926 17.3643 16.7696 16.29H10.6596C10.4421 16.3257 10.2195 16.3136 10.0071 16.2546C9.79474 16.1956 9.59774 16.0912 9.42977 15.9485C9.26179 15.8058 9.12686 15.6283 9.03432 15.4282C8.94178 15.2282 8.89385 15.0104 8.89385 14.79C8.89385 14.5696 8.94178 14.3519 9.03432 14.1518C9.12686 13.9518 9.26179 13.7743 9.42977 13.6316C9.59774 13.4889 9.79474 13.3844 10.0071 13.3255C10.2195 13.2665 10.4421 13.2544 10.6596 13.29H16.8296C17.14 12.2034 17.7959 11.2475 18.6981 10.567C19.6003 9.88644 20.6996 9.51831 21.8296 9.51831C22.9597 9.51831 24.059 9.88644 24.9611 10.567C25.8633 11.2475 26.5192 12.2034 26.8296 13.29H47.6996C47.9171 13.2544 48.1398 13.2665 48.3521 13.3255C48.5645 13.3844 48.7615 13.4889 48.9295 13.6316C49.0974 13.7743 49.2324 13.9518 49.3249 14.1518C49.4174 14.3519 49.4654 14.5696 49.4654 14.79C49.4654 15.0104 49.4174 15.2282 49.3249 15.4282C49.2324 15.6283 49.0974 15.8058 48.9295 15.9485C48.7615 16.0912 48.5645 16.1956 48.3521 16.2546C48.1398 16.3136 47.9171 16.3257 47.6996 16.29H26.7496C26.4276 17.361 25.7696 18.3 24.8728 18.9681C23.976 19.6362 22.8879 19.998 21.7696 20ZM21.7696 12.59C21.3356 12.588 20.9108 12.7151 20.5492 12.9549C20.1875 13.1948 19.9053 13.5367 19.7383 13.9373C19.5713 14.3379 19.5271 14.7791 19.6112 15.2048C19.6954 15.6306 19.9042 16.0217 20.2111 16.3286C20.518 16.6354 20.9091 16.8442 21.3348 16.9284C21.7606 17.0126 22.2017 16.9684 22.6023 16.8014C23.0029 16.6344 23.3448 16.3521 23.5847 15.9905C23.8246 15.6288 23.9516 15.204 23.9496 14.77C23.9496 14.1909 23.7203 13.6354 23.3117 13.225C22.9032 12.8146 22.3487 12.5827 21.7696 12.58V12.59Z" fill="white"/>
</g>
</svg>
