<svg width="57" height="57" viewBox="0 0 57 57" fill="none" xmlns="http://www.w3.org/2000/svg">
<g id="Icones_Icone_Chat" clip-path="url(#clip0_715_2053)">
<path id="Vector" d="M50.2894 4.13H6.82943C5.02841 4.17976 3.32049 4.9412 2.07971 6.24758C0.838933 7.55396 0.166413 9.29881 0.209431 11.1V40.46C0.182801 41.3547 0.333082 42.2459 0.651653 43.0824C0.970225 43.9189 1.45082 44.6843 2.06586 45.3347C2.68091 45.985 3.41831 46.5075 4.23576 46.8723C5.0532 47.237 5.93461 47.4367 6.82943 47.46H8.87943C9.42797 47.4738 9.96615 47.6125 10.4531 47.8654C10.94 48.1184 11.3628 48.4791 11.6894 48.92L16.8694 54.15C17.0086 54.2928 17.175 54.4062 17.3588 54.4835C17.5426 54.5608 17.74 54.6004 17.9394 54.6H17.9894C18.2038 54.5851 18.4123 54.5237 18.6005 54.4201C18.7888 54.3165 18.9522 54.1731 19.0794 54L19.1694 53.9C19.6294 53.37 21.7894 50.9 23.5994 48.83C23.935 48.4042 24.3573 48.0546 24.8383 47.8046C25.3194 47.5546 25.8481 47.4099 26.3894 47.38H50.2894C51.1834 47.3554 52.0637 47.1547 52.88 46.7894C53.6963 46.4241 54.4325 45.9014 55.0465 45.2512C55.6605 44.601 56.1402 43.836 56.4582 43.0002C56.7761 42.1643 56.9261 41.2739 56.8994 40.38V11.1C56.9425 9.30049 56.2713 7.55712 55.0327 6.25103C53.7941 4.94493 52.0887 4.18235 50.2894 4.13ZM3.20943 11.1C3.18249 10.6 3.25462 10.0996 3.42168 9.62763C3.58875 9.15562 3.84745 8.72127 4.18292 8.34956C4.51839 7.97785 4.92401 7.67611 5.37647 7.46166C5.82893 7.24722 6.31931 7.12431 6.81943 7.1H50.2894C50.7887 7.12559 51.278 7.24943 51.7293 7.46443C52.1806 7.67944 52.5851 7.98138 52.9195 8.35296C53.2539 8.72454 53.5117 9.15845 53.6782 9.62984C53.8446 10.1012 53.9164 10.6008 53.8894 11.1V40.46C53.9329 41.4604 53.5787 42.4374 52.9042 43.1775C52.2296 43.9177 51.2896 44.3607 50.2894 44.41H26.3894C25.4197 44.4353 24.4669 44.669 23.5955 45.0952C22.7241 45.5214 21.9547 46.1301 21.3394 46.88C20.1394 48.24 18.7794 49.79 17.8694 50.88L13.9394 46.88C13.3366 46.1136 12.5684 45.4934 11.6922 45.0657C10.816 44.638 9.85445 44.4138 8.87943 44.41H6.87943C6.37815 44.3946 5.88491 44.2798 5.42831 44.0724C4.9717 43.8649 4.56081 43.5689 4.21944 43.2015C3.87807 42.8341 3.61302 42.4026 3.43965 41.932C3.26627 41.4614 3.18802 40.9611 3.20943 40.46V11.1Z" fill="white"/>
<path id="Vector_2" d="M15.7095 29.34C16.5006 29.34 17.274 29.1054 17.9318 28.6658C18.5896 28.2263 19.1022 27.6016 19.405 26.8707C19.7077 26.1398 19.787 25.3355 19.6326 24.5596C19.4783 23.7837 19.0973 23.071 18.5379 22.5115C17.9785 21.9521 17.2658 21.5712 16.4898 21.4168C15.7139 21.2625 14.9096 21.3417 14.1787 21.6444C13.4478 21.9472 12.8231 22.4599 12.3836 23.1177C11.9441 23.7755 11.7095 24.5488 11.7095 25.34C11.7095 26.4008 12.1309 27.4182 12.881 28.1684C13.6312 28.9185 14.6486 29.34 15.7095 29.34Z" fill="white"/>
<path id="Vector_3" d="M28.5594 29.34C29.3506 29.34 30.1239 29.1054 30.7817 28.6658C31.4395 28.2263 31.9522 27.6016 32.255 26.8707C32.5577 26.1398 32.6369 25.3355 32.4826 24.5596C32.3282 23.7837 31.9473 23.071 31.3879 22.5115C30.8285 21.9521 30.1157 21.5712 29.3398 21.4168C28.5639 21.2625 27.7596 21.3417 27.0287 21.6444C26.2978 21.9472 25.6731 22.4599 25.2336 23.1177C24.794 23.7755 24.5594 24.5488 24.5594 25.34C24.5594 26.4008 24.9809 27.4182 25.731 28.1684C26.4812 28.9185 27.4986 29.34 28.5594 29.34Z" fill="white"/>
<path id="Vector_4" d="M41.4094 29.34C42.2005 29.34 42.9739 29.1054 43.6317 28.6658C44.2895 28.2263 44.8022 27.6016 45.1049 26.8707C45.4077 26.1398 45.4869 25.3355 45.3326 24.5596C45.1782 23.7837 44.7973 23.071 44.2379 22.5115C43.6784 21.9521 42.9657 21.5712 42.1898 21.4168C41.4139 21.2625 40.6096 21.3417 39.8787 21.6444C39.1478 21.9472 38.5231 22.4599 38.0835 23.1177C37.644 23.7755 37.4094 24.5488 37.4094 25.34C37.4094 26.4008 37.8309 27.4182 38.581 28.1684C39.3311 28.9185 40.3486 29.34 41.4094 29.34Z" fill="white"/>
</g>
<defs>
<clipPath id="clip0_715_2053">
<rect width="56.69" height="56.69" fill="white" transform="translate(0.209473)"/>
</clipPath>
</defs>
</svg>
