<svg width="58" height="57" viewBox="0 0 58 57" fill="none" xmlns="http://www.w3.org/2000/svg">
<g id="Icones_Icone_Central">
<path id="Vector" d="M55.1195 23.49C55.3029 23.4914 55.4847 23.4564 55.6545 23.3871C55.8243 23.3179 55.9787 23.2157 56.1088 23.0865C56.239 22.9573 56.3422 22.8036 56.4127 22.6343C56.4832 22.465 56.5195 22.2834 56.5195 22.1V17.1C56.5134 16.8824 56.4558 16.6692 56.3515 16.478C56.2472 16.2868 56.0992 16.1231 55.9195 16L29.5195 0.880049L29.4195 0.820049C29.2484 0.736637 29.0598 0.695486 28.8695 0.700049C28.6714 0.703686 28.4767 0.751517 28.2995 0.840049L1.91948 15.89L1.80948 16C1.63046 16.123 1.48348 16.287 1.38083 16.4784C1.27818 16.6697 1.22286 16.8829 1.21948 17.1V22.1C1.21948 22.4687 1.36593 22.8223 1.6266 23.0829C1.88728 23.3436 2.24083 23.49 2.60948 23.49H6.21948V45.71H5.10948C4.84409 45.711 4.58468 45.789 4.36278 45.9345C4.14087 46.0801 3.96602 46.287 3.85948 46.53L1.28948 54.16V54.3101C1.27907 54.4064 1.27907 54.5037 1.28948 54.6C1.28645 54.9586 1.4221 55.3045 1.66808 55.5654C1.91407 55.8263 2.25136 55.982 2.60948 56H55.1195C55.3037 56.0014 55.4864 55.9661 55.6568 55.8962C55.8273 55.8263 55.9821 55.7232 56.1124 55.593C56.2427 55.4627 56.3457 55.3078 56.4156 55.1374C56.4855 54.9669 56.5208 54.7843 56.5195 54.6C56.5305 54.5004 56.5305 54.3997 56.5195 54.3L53.9795 46.67L53.9195 46.5401C53.8129 46.297 53.6381 46.0901 53.4162 45.9445C53.1943 45.799 52.9349 45.721 52.6695 45.7201H51.5195V23.49H55.1195ZM4.51948 53.21L6.11948 48.4901H51.6095L53.1895 53.21H4.51948ZM8.97948 45.71V23.49H13.7195V45.71H8.97948ZM16.4895 45.71V23.49H21.2195V45.71H16.4895ZM23.9895 45.71V23.49H33.7195V45.71H23.9895ZM36.4895 45.71V23.49H41.2095V45.71H36.4895ZM43.9895 45.71V23.49H48.7095V45.71H43.9895ZM53.7095 18.49V20.7001H3.99948V18.49H53.7095ZM7.84948 15.7L28.8495 3.70005L49.8495 15.7H7.84948Z" fill="white"/>
</g>
</svg>
