<svg width="58" height="58" viewBox="0 0 58 58" fill="none" xmlns="http://www.w3.org/2000/svg">
<g id="Icones_Icone_Estrela1">
<path id="Vector" d="M16.5597 51.38C15.6182 51.3814 14.702 51.076 13.9497 50.51C13.3128 50.0459 12.8175 49.4139 12.519 48.6846C12.2206 47.9553 12.1308 47.1574 12.2597 46.38L14.0897 36.02C14.1245 35.8134 14.108 35.6014 14.0418 35.4026C13.9755 35.2038 13.8615 35.0244 13.7097 34.88L5.98968 27.5C5.40522 26.9501 4.98878 26.2458 4.78876 25.4687C4.58873 24.6916 4.61332 23.8736 4.85968 23.11C5.10215 22.3243 5.56426 21.6245 6.1915 21.0929C6.81874 20.5614 7.58493 20.2203 8.39968 20.11L19.0797 18.6C19.2914 18.5638 19.4919 18.4791 19.6654 18.3525C19.839 18.2258 19.9807 18.0606 20.0797 17.87L24.8697 8.41997C25.2394 7.70276 25.8025 7.10343 26.4953 6.68985C27.1882 6.27628 27.983 6.06501 28.7897 6.07997C29.5955 6.07436 30.3869 6.29428 31.0743 6.71486C31.7617 7.13544 32.3178 7.73991 32.6797 8.45997L37.4497 17.92C37.5479 18.1102 37.6897 18.2746 37.8635 18.3997C38.0372 18.5248 38.2381 18.6072 38.4497 18.64L49.1297 20.15C49.9453 20.2579 50.7126 20.5981 51.3403 21.13C51.9679 21.662 52.4294 22.3631 52.6697 23.15C52.916 23.9136 52.9406 24.7316 52.7406 25.5087C52.5406 26.2858 52.1241 26.9901 51.5397 27.54L43.8197 34.87C43.6679 35.0144 43.5538 35.1938 43.4876 35.3926C43.4213 35.5914 43.4049 35.8034 43.4397 36.01L45.3197 46.38C45.461 47.1617 45.3793 47.9675 45.0839 48.705C44.7886 49.4424 44.2915 50.0818 43.6497 50.55C42.9922 51.0433 42.2087 51.3407 41.3895 51.408C40.5703 51.4752 39.7488 51.3095 39.0197 50.93L29.4497 45.97C29.249 45.8712 29.0283 45.8198 28.8047 45.8198C28.581 45.8198 28.3603 45.8712 28.1597 45.97L18.5697 50.88C17.9493 51.2049 17.26 51.3764 16.5597 51.38ZM28.7997 42.83C29.4949 42.8297 30.1803 42.9942 30.7997 43.31L40.3897 48.22C40.621 48.3411 40.8819 48.3941 41.1421 48.3728C41.4023 48.3516 41.6511 48.257 41.8597 48.1C42.0537 47.9631 42.2047 47.7737 42.295 47.5541C42.3853 47.3345 42.4112 47.0938 42.3697 46.86L40.5397 36.49C40.4201 35.7964 40.4735 35.084 40.695 34.4159C40.9165 33.7478 41.2994 33.1447 41.8097 32.66L49.5297 25.38C49.7096 25.2219 49.8381 25.0137 49.8987 24.782C49.9593 24.5503 49.9492 24.3058 49.8697 24.08C49.794 23.8382 49.6498 23.6235 49.4545 23.462C49.2593 23.3004 49.0214 23.199 48.7697 23.17L38.0897 21.61C37.3945 21.5142 36.7329 21.2512 36.1617 20.8437C35.5904 20.4361 35.1265 19.8961 34.8097 19.27L30.0197 9.80997C29.9026 9.58831 29.7269 9.40304 29.5118 9.27432C29.2967 9.14561 29.0504 9.07838 28.7997 9.07997C28.5505 9.0791 28.3058 9.14673 28.0924 9.27547C27.879 9.40421 27.7051 9.5891 27.5897 9.80997L22.7897 19.28C22.4689 19.9022 22.0037 20.4385 21.433 20.8439C20.8624 21.2493 20.2028 21.512 19.5097 21.61L8.81968 23.12C8.56838 23.1502 8.33108 23.2521 8.13605 23.4134C7.94102 23.5748 7.79649 23.7888 7.71968 24.03C7.63474 24.2632 7.62174 24.5165 7.68235 24.7572C7.74297 24.9979 7.87441 25.2148 8.05968 25.38L15.7797 32.7C16.2908 33.1863 16.6741 33.7911 16.8956 34.4609C17.1171 35.1307 17.1701 35.8448 17.0497 36.54L15.2197 46.85C15.1781 47.0838 15.204 47.3245 15.2944 47.5441C15.3847 47.7637 15.5357 47.9531 15.7297 48.09C15.9383 48.247 16.1871 48.3416 16.4473 48.3628C16.7075 48.3841 16.9684 48.3311 17.1997 48.21L26.7797 43.3C27.4065 42.985 28.0982 42.8207 28.7997 42.82V42.83Z" fill="white"/>
</g>
</svg>
